<svg xmlns="http://www.w3.org/2000/svg" width="80" height="80" viewBox="0 0 470 470"><g fill="#fff"><path d="M78.036 273.667a7.47 7.47 0 0 0 5.003 1.915 7.5 7.5 0 0 0 5.008-13.085l-30.081-26.961 59.565-109.756 19.097 35.189a7.5 7.5 0 1 0 13.183-7.154l-25.689-47.335a7.5 7.5 0 0 0-13.184 0L.91 309.225a7.5 7.5 0 0 0 13.184 7.155l36.519-67.292 27.423 24.579z"/><path d="M241.593 46.369a7.5 7.5 0 0 0-13.184 0L27.552 416.477a7.5 7.5 0 0 0 6.585 11.079c2.662 0 5.24-1.42 6.599-3.924l103.459-190.638 39.364 35.285a7.5 7.5 0 0 0 10.012 0l41.426-37.134 41.432 37.135c1.425 1.277 3.215 1.915 5.006 1.915s3.581-.638 5.006-1.915l39.368-35.285 103.46 190.639a7.5 7.5 0 0 0 13.184-7.155l-200.86-370.11zm39.841 206.253l-41.433-37.135a7.5 7.5 0 0 0-10.012 0l-41.425 37.134-37.015-33.179L235.001 65.67l83.452 153.772-37.019 33.18z"/></g></svg>
