<svg xmlns="http://www.w3.org/2000/svg" width="80" height="80" viewBox="0 0 470 470"><g fill="#fff"><path d="M469.093 309.224l-110.03-202.745a7.5 7.5 0 0 0-13.184.001l-25.688 47.335a7.5 7.5 0 0 0 3.015 10.169 7.499 7.499 0 0 0 10.169-3.015l19.097-35.189 59.565 109.756-30.081 26.961a7.5 7.5 0 0 0 10.012 11.17l27.424-24.58 36.519 67.292a7.498 7.498 0 0 0 10.169 3.014 7.5 7.5 0 0 0 3.013-10.169z"/><path d="M241.593 46.369a7.5 7.5 0 0 0-13.184 0L27.552 416.477a7.5 7.5 0 0 0 6.585 11.079c2.662 0 5.24-1.42 6.599-3.924l103.459-190.638 39.364 35.285a7.5 7.5 0 0 0 10.012 0l41.426-37.134 41.432 37.135c1.425 1.277 3.215 1.915 5.006 1.915s3.581-.638 5.006-1.915l39.368-35.285 103.46 190.639a7.5 7.5 0 0 0 13.184-7.155l-200.86-370.11zm39.841 206.253l-41.433-37.135a7.5 7.5 0 0 0-10.012 0l-41.425 37.134-37.015-33.179L235.001 65.67l83.452 153.772-37.019 33.18z"/></g></svg>
